<?xml version="1.0" encoding="UTF-8" standalone="no"?>
<svg height="24px" viewBox="0 -960 960 960" width="24px" fill="#5f6368" version="1.1" id="svg1" xmlns="http://www.w3.org/2000/svg" xmlns:svg="http://www.w3.org/2000/svg">
  <defs id="defs1" />
  <path d="m376-300 104-104 104 104 56-56-104-104 104-104-56-56-104 104-104-104-56 56 104 104-104 104 56 56Zm-96 180q-33 0-56.5-23.5T200-200v-520h-40v-80h200v-40h240v40h200v80h-40v520q0 33-23.5 56.5T680-120H280Zm400-600H280v520h400v-520Zm-400 0v520-520Z" id="path1" style="fill:#ff2a2a" />
</svg>
